<svg xmlns="http://www.w3.org/2000/svg" viewBox="0 0 1280 720" width="1280" height="720">
    <!--
    等距阶梯图模板
    用途: 递进阶段、成长路径、成熟度模型
    适用场景: 数字化转型阶段、能力成熟度、战略里程碑递进
    支持: 6级阶梯 (推荐4-7级)
    -->

    <defs>
        <filter id="stairShadow" x="-15%" y="-15%" width="130%" height="130%">
            <feGaussianBlur in="SourceAlpha" stdDeviation="5"/>
            <feOffset dx="2" dy="4"/>
            <feComponentTransfer><feFuncA type="linear" slope="0.12"/></feComponentTransfer>
            <feMerge><feMergeNode/><feMergeNode in="SourceGraphic"/></feMerge>
        </filter>
        <radialGradient id="bgGlow" cx="80%" cy="20%" r="70%">
            <stop offset="0%" stop-color="#EEF2FF" stop-opacity="0.6"/>
            <stop offset="100%" stop-color="#FFFFFF" stop-opacity="0"/>
        </radialGradient>
    </defs>

    <!-- 背景 -->
    <rect width="1280" height="720" fill="#FFFFFF"/>
    <rect width="1280" height="720" fill="url(#bgGlow)"/>

    <!-- 标题 -->
    <text x="60" y="60" font-family="-apple-system, BlinkMacSystemFont, 'Segoe UI', sans-serif"
          font-size="28" font-weight="700" fill="#0F172A">数字化转型六阶段</text>
    <text x="60" y="86" font-family="-apple-system, BlinkMacSystemFont, 'Segoe UI', sans-serif"
          font-size="12" font-weight="500" fill="#64748B" letter-spacing="3">DIGITAL TRANSFORMATION ROADMAP  ·  从基础到引领的递进路径</text>

    <!-- ===== 阶梯1 ===== -->
    <g transform="translate(80, 480)" filter="url(#stairShadow)">
        <polygon points="0,0 130,-38 260,0 130,38" fill="#A5B4FC"/>
        <polygon points="0,0 0,72 130,110 130,38" fill="#818CF8"/>
        <polygon points="130,38 130,110 260,72 260,0" fill="#6366F1"/>
        <polyline points="0,0 130,-38 260,0" fill="none" stroke="#FFFFFF" stroke-width="0.8" stroke-opacity="0.4"/>
        <text x="130" y="12" text-anchor="middle" font-family="-apple-system, BlinkMacSystemFont, 'Segoe UI', sans-serif"
              font-size="28" font-weight="800" fill="#FFFFFF" fill-opacity="0.95">01</text>
    </g>
    <text x="210" y="628" text-anchor="middle" font-family="-apple-system, BlinkMacSystemFont, 'Segoe UI', sans-serif"
          font-size="15" font-weight="700" fill="#0F172A">基础信息化</text>
    <text x="210" y="650" text-anchor="middle" font-family="-apple-system, BlinkMacSystemFont, 'Segoe UI', sans-serif"
          font-size="11" fill="#64748B">IT 基础设施建设</text>

    <!-- ===== 阶梯2 ===== -->
    <g transform="translate(230, 410)" filter="url(#stairShadow)">
        <polygon points="0,0 130,-38 260,0 130,38" fill="#818CF8"/>
        <polygon points="0,0 0,72 130,110 130,38" fill="#6366F1"/>
        <polygon points="130,38 130,110 260,72 260,0" fill="#4F46E5"/>
        <polyline points="0,0 130,-38 260,0" fill="none" stroke="#FFFFFF" stroke-width="0.8" stroke-opacity="0.4"/>
        <text x="130" y="12" text-anchor="middle" font-family="-apple-system, BlinkMacSystemFont, 'Segoe UI', sans-serif"
              font-size="28" font-weight="800" fill="#FFFFFF" fill-opacity="0.95">02</text>
    </g>
    <text x="360" y="558" text-anchor="middle" font-family="-apple-system, BlinkMacSystemFont, 'Segoe UI', sans-serif"
          font-size="15" font-weight="700" fill="#0F172A">流程数字化</text>
    <text x="360" y="580" text-anchor="middle" font-family="-apple-system, BlinkMacSystemFont, 'Segoe UI', sans-serif"
          font-size="11" fill="#64748B">核心业务在线化</text>

    <!-- ===== 阶梯3 ===== -->
    <g transform="translate(380, 340)" filter="url(#stairShadow)">
        <polygon points="0,0 130,-38 260,0 130,38" fill="#6366F1"/>
        <polygon points="0,0 0,72 130,110 130,38" fill="#4F46E5"/>
        <polygon points="130,38 130,110 260,72 260,0" fill="#4338CA"/>
        <polyline points="0,0 130,-38 260,0" fill="none" stroke="#FFFFFF" stroke-width="0.8" stroke-opacity="0.35"/>
        <text x="130" y="12" text-anchor="middle" font-family="-apple-system, BlinkMacSystemFont, 'Segoe UI', sans-serif"
              font-size="28" font-weight="800" fill="#FFFFFF" fill-opacity="0.95">03</text>
    </g>
    <text x="510" y="488" text-anchor="middle" font-family="-apple-system, BlinkMacSystemFont, 'Segoe UI', sans-serif"
          font-size="15" font-weight="700" fill="#0F172A">数据驱动</text>
    <text x="510" y="510" text-anchor="middle" font-family="-apple-system, BlinkMacSystemFont, 'Segoe UI', sans-serif"
          font-size="11" fill="#64748B">决策数据化运营</text>

    <!-- ===== 阶梯4 ===== -->
    <g transform="translate(530, 270)" filter="url(#stairShadow)">
        <polygon points="0,0 130,-38 260,0 130,38" fill="#4F46E5"/>
        <polygon points="0,0 0,72 130,110 130,38" fill="#4338CA"/>
        <polygon points="130,38 130,110 260,72 260,0" fill="#3730A3"/>
        <polyline points="0,0 130,-38 260,0" fill="none" stroke="#FFFFFF" stroke-width="0.8" stroke-opacity="0.3"/>
        <text x="130" y="12" text-anchor="middle" font-family="-apple-system, BlinkMacSystemFont, 'Segoe UI', sans-serif"
              font-size="28" font-weight="800" fill="#FFFFFF" fill-opacity="0.95">04</text>
    </g>
    <text x="660" y="418" text-anchor="middle" font-family="-apple-system, BlinkMacSystemFont, 'Segoe UI', sans-serif"
          font-size="15" font-weight="700" fill="#0F172A">智能赋能</text>
    <text x="660" y="440" text-anchor="middle" font-family="-apple-system, BlinkMacSystemFont, 'Segoe UI', sans-serif"
          font-size="11" fill="#64748B">AI + 业务深度融合</text>

    <!-- ===== 阶梯5 ===== -->
    <g transform="translate(680, 200)" filter="url(#stairShadow)">
        <polygon points="0,0 130,-38 260,0 130,38" fill="#4338CA"/>
        <polygon points="0,0 0,72 130,110 130,38" fill="#3730A3"/>
        <polygon points="130,38 130,110 260,72 260,0" fill="#312E81"/>
        <polyline points="0,0 130,-38 260,0" fill="none" stroke="#FFFFFF" stroke-width="0.8" stroke-opacity="0.28"/>
        <text x="130" y="12" text-anchor="middle" font-family="-apple-system, BlinkMacSystemFont, 'Segoe UI', sans-serif"
              font-size="28" font-weight="800" fill="#FFFFFF" fill-opacity="0.95">05</text>
    </g>
    <text x="810" y="348" text-anchor="middle" font-family="-apple-system, BlinkMacSystemFont, 'Segoe UI', sans-serif"
          font-size="15" font-weight="700" fill="#0F172A">生态连接</text>
    <text x="810" y="370" text-anchor="middle" font-family="-apple-system, BlinkMacSystemFont, 'Segoe UI', sans-serif"
          font-size="11" fill="#64748B">产业链协同平台</text>

    <!-- ===== 阶梯6 ===== -->
    <g transform="translate(830, 130)" filter="url(#stairShadow)">
        <polygon points="0,0 130,-38 260,0 130,38" fill="#3730A3"/>
        <polygon points="0,0 0,72 130,110 130,38" fill="#312E81"/>
        <polygon points="130,38 130,110 260,72 260,0" fill="#1E1B4B"/>
        <polyline points="0,0 130,-38 260,0" fill="none" stroke="#FFFFFF" stroke-width="0.8" stroke-opacity="0.25"/>
        <text x="130" y="12" text-anchor="middle" font-family="-apple-system, BlinkMacSystemFont, 'Segoe UI', sans-serif"
              font-size="28" font-weight="800" fill="#FFFFFF" fill-opacity="0.95">06</text>
    </g>
    <text x="960" y="278" text-anchor="middle" font-family="-apple-system, BlinkMacSystemFont, 'Segoe UI', sans-serif"
          font-size="15" font-weight="700" fill="#0F172A">全面引领</text>
    <text x="960" y="300" text-anchor="middle" font-family="-apple-system, BlinkMacSystemFont, 'Segoe UI', sans-serif"
          font-size="11" fill="#64748B">行业标准制定者</text>

    <!-- 右侧成熟度递增轴 -->
    <g transform="translate(1175, 130)">
        <line x1="0" y1="490" x2="0" y2="20" stroke="#CBD5E1" stroke-width="1.5"/>
        <polyline points="-6,28 0,16 6,28" fill="none" stroke="#4F46E5" stroke-width="1.8" stroke-linecap="round" stroke-linejoin="round"/>
        <circle cx="0" cy="490" r="3" fill="#CBD5E1"/>
        <text x="20" y="270" font-family="-apple-system, BlinkMacSystemFont, 'Segoe UI', sans-serif"
              font-size="11" fill="#64748B" letter-spacing="2" transform="rotate(-90 20 270)">MATURITY  ·  成熟度递增</text>
    </g>

    <!-- 底部总结 -->
    <text x="640" y="690" text-anchor="middle" font-family="-apple-system, BlinkMacSystemFont, 'Segoe UI', sans-serif"
          font-size="12" fill="#94A3B8">从基础信息化到全面引领，六大阶梯逐步构建企业数字化核心竞争力</text>
</svg>
