<svg xmlns="http://www.w3.org/2000/svg" viewBox="0 0 1280 720">
  
  <rect width="1280" height="720" fill="#FFFFFF" />
  
  
  <rect x="0" y="0" width="1280" height="4" fill="#005587" />
  
  
  <text x="60" y="80" font-family="sans-serif" font-size="42" font-weight="700" fill="#C8102E">
    功臣的命运
  </text>
  
  <line x1="60" y1="95" x2="320" y2="95" stroke="#C8102E" stroke-width="3" />
  
  
  <g>
    <rect x="60" y="130" width="500" height="530" fill="#F5F5F5" rx="8" />
    
    <text x="310" y="170" font-family="sans-serif" font-size="26" font-weight="700" fill="#005587" text-anchor="middle">
      开国名将结局统计
    </text>
    
    
    <g transform="translate(310, 350)">
      
      <path d="M 0,-120 A 120,120 0 0,1 103.92,60 L 0,0 Z" fill="#005587" opacity="0.8" />
      <text x="50" y="-70" font-family="sans-serif" font-size="18" font-weight="700" fill="#FFFFFF" text-anchor="middle">
        30%
      </text>
      
      
      <path d="M 103.92,60 A 120,120 0 0,1 -103.92,60 L 0,0 Z" fill="#C8102E" opacity="0.9" />
      <text x="0" y="80" font-family="sans-serif" font-size="18" font-weight="700" fill="#FFFFFF" text-anchor="middle">
        50%
      </text>
      
      
      <path d="M -103.92,60 A 120,120 0 0,1 0,-120 L 0,0 Z" fill="#666666" opacity="0.7" />
      <text x="-60" y="-40" font-family="sans-serif" font-size="18" font-weight="700" fill="#FFFFFF" text-anchor="middle">
        10%
      </text>
      
      
      <circle cx="0" cy="0" r="50" fill="#FFFFFF" />
      <text x="0" y="5" font-family="sans-serif" font-size="16" font-weight="700" fill="#005587" text-anchor="middle">
        其他
      </text>
      <text x="0" y="25" font-family="sans-serif" font-size="14" font-weight="400" fill="#666666" text-anchor="middle">
        10%
      </text>
    </g>
    
    
    <g transform="translate(80, 540)">
      <rect x="0" y="0" width="20" height="20" fill="#005587" opacity="0.8" />
      <text x="30" y="16" font-family="sans-serif" font-size="16" font-weight="400" fill="#333333">
        善终（病死）
      </text>
      
      <rect x="160" y="0" width="20" height="20" fill="#C8102E" opacity="0.9" />
      <text x="190" y="16" font-family="sans-serif" font-size="16" font-weight="400" fill="#333333">
        被杀/赐死
      </text>
      
      <rect x="320" y="0" width="20" height="20" fill="#666666" opacity="0.7" />
      <text x="350" y="16" font-family="sans-serif" font-size="16" font-weight="400" fill="#333333">
        战死
      </text>
    </g>
    
    <g transform="translate(80, 580)">
      <text x="0" y="0" font-family="sans-serif" font-size="14" font-weight="400" fill="#666666" font-style="italic">
        统计范围：主要开国功臣及名将
      </text>
      <text x="0" y="22" font-family="sans-serif" font-size="14" font-weight="400" fill="#666666" font-style="italic">
        数据来源：明史及相关历史文献
      </text>
    </g>
  </g>
  
  
  <g>
    <rect x="600" y="130" width="620" height="530" fill="#F5F5F5" rx="8" />
    
    <text x="910" y="170" font-family="sans-serif" font-size="26" font-weight="700" fill="#005587" text-anchor="middle">
      重要人物结局
    </text>
    
    
    <g transform="translate(630, 200)">
      <rect x="0" y="0" width="560" height="130" fill="#FFFFFF" rx="6" />
      <rect x="0" y="0" width="8" height="130" fill="#005587" rx="2" />
      
      <text x="30" y="30" font-family="sans-serif" font-size="20" font-weight="700" fill="#005587">
        ✓ 善终者（病死）
      </text>
      
      <g transform="translate(30, 50)">
        <rect x="0" y="0" width="90" height="28" fill="#005587" rx="4" />
        <text x="45" y="19" font-family="sans-serif" font-size="14" font-weight="600" fill="#FFFFFF" text-anchor="middle">
          徐达
        </text>
      </g>
      
      <g transform="translate(130, 50)">
        <rect x="0" y="0" width="90" height="28" fill="#005587" rx="4" />
        <text x="45" y="19" font-family="sans-serif" font-size="14" font-weight="600" fill="#FFFFFF" text-anchor="middle">
          常遇春
        </text>
      </g>
      
      <g transform="translate(230, 50)">
        <rect x="0" y="0" width="90" height="28" fill="#005587" rx="4" />
        <text x="45" y="19" font-family="sans-serif" font-size="14" font-weight="600" fill="#FFFFFF" text-anchor="middle">
          汤和
        </text>
      </g>
      
      <g transform="translate(330, 50)">
        <rect x="0" y="0" width="90" height="28" fill="#005587" rx="4" />
        <text x="45" y="19" font-family="sans-serif" font-size="14" font-weight="600" fill="#FFFFFF" text-anchor="middle">
          邓愈
        </text>
      </g>
      
      <g transform="translate(430, 50)">
        <rect x="0" y="0" width="90" height="28" fill="#005587" rx="4" />
        <text x="45" y="19" font-family="sans-serif" font-size="14" font-weight="600" fill="#FFFFFF" text-anchor="middle">
          沐英
        </text>
      </g>
      
      <text x="30" y="105" font-family="sans-serif" font-size="14" font-weight="400" fill="#666666">
        注：汤和是唯一善终的儿时伙伴
      </text>
    </g>
    
    
    <g transform="translate(630, 350)">
      <rect x="0" y="0" width="560" height="210" fill="#FFFFFF" rx="6" />
      <rect x="0" y="0" width="8" height="210" fill="#C8102E" rx="2" />
      
      <text x="30" y="30" font-family="sans-serif" font-size="20" font-weight="700" fill="#C8102E">
        ✗ 被杀/赐死者
      </text>
      
      <g transform="translate(30, 50)">
        <rect x="0" y="0" width="110" height="28" fill="#C8102E" rx="4" />
        <text x="55" y="19" font-family="sans-serif" font-size="13" font-weight="600" fill="#FFFFFF" text-anchor="middle">
          李善长
        </text>
      </g>
      
      <g transform="translate(160, 50)">
        <rect x="0" y="0" width="110" height="28" fill="#C8102E" rx="4" />
        <text x="55" y="19" font-family="sans-serif" font-size="13" font-weight="600" fill="#FFFFFF" text-anchor="middle">
          蓝玉
        </text>
      </g>
      
      <g transform="translate(290, 50)">
        <rect x="0" y="0" width="110" height="28" fill="#C8102E" rx="4" />
        <text x="55" y="19" font-family="sans-serif" font-size="13" font-weight="600" fill="#FFFFFF" text-anchor="middle">
          冯胜
        </text>
      </g>
      
      <g transform="translate(420, 50)">
        <rect x="0" y="0" width="110" height="28" fill="#C8102E" rx="4" />
        <text x="55" y="19" font-family="sans-serif" font-size="13" font-weight="600" fill="#FFFFFF" text-anchor="middle">
          傅友德
        </text>
      </g>
      
      <g transform="translate(30, 95)">
        <rect x="0" y="0" width="110" height="28" fill="#C8102E" rx="4" />
        <text x="55" y="19" font-family="sans-serif" font-size="13" font-weight="600" fill="#FFFFFF" text-anchor="middle">
          廖永忠
        </text>
      </g>
      
      <g transform="translate(160, 95)">
        <rect x="0" y="0" width="110" height="28" fill="#C8102E" rx="4" />
        <text x="55" y="19" font-family="sans-serif" font-size="13" font-weight="600" fill="#FFFFFF" text-anchor="middle">
          朱亮祖
        </text>
      </g>
      
      <g transform="translate(290, 95)">
        <rect x="0" y="0" width="110" height="28" fill="#C8102E" rx="4" />
        <text x="55" y="19" font-family="sans-serif" font-size="13" font-weight="600" fill="#FFFFFF" text-anchor="middle">
          朱文正
        </text>
      </g>
      
      <g transform="translate(420, 95)">
        <rect x="0" y="0" width="110" height="28" fill="#C8102E" rx="4" />
        <text x="55" y="19" font-family="sans-serif" font-size="13" font-weight="600" fill="#FFFFFF" text-anchor="middle">
          王弼
        </text>
      </g>
      
      <text x="30" y="155" font-family="sans-serif" font-size="14" font-weight="400" fill="#666666">
        李善长：开国第一功臣（1390）
      </text>
      
      <text x="30" y="177" font-family="sans-serif" font-size="14" font-weight="400" fill="#666666">
        蓝玉：最后的名将（1393）
      </text>
    </g>
    
    
    <g transform="translate(630, 580)">
      <rect x="0" y="0" width="560" height="60" fill="#FFFFFF" rx="6" />
      <rect x="0" y="0" width="8" height="60" fill="#666666" rx="2" />
      
      <text x="30" y="30" font-family="sans-serif" font-size="18" font-weight="700" fill="#666666">
        ⚔️ 战死者
      </text>
      
      <g transform="translate(160, 15)">
        <rect x="0" y="0" width="100" height="28" fill="#666666" rx="4" />
        <text x="50" y="19" font-family="sans-serif" font-size="14" font-weight="600" fill="#FFFFFF" text-anchor="middle">
          冯国用
        </text>
      </g>
      
      <g transform="translate(280, 15)">
        <rect x="0" y="0" width="100" height="28" fill="#666666" rx="4" />
        <text x="50" y="19" font-family="sans-serif" font-size="14" font-weight="600" fill="#FFFFFF" text-anchor="middle">
          丁德兴
        </text>
      </g>
    </g>
  </g>
  
  
  <rect x="60" y="680" width="1160" height="30" fill="#C8102E" rx="4" />
  <text x="640" y="702" font-family="sans-serif" font-size="16" font-weight="700" fill="#FFFFFF" text-anchor="middle">
    核心动机：为皇太孙朱允炆扫清障碍，但也为朱棣靖难之役埋下伏笔
  </text>
  
  
  <rect x="0" y="716" width="1280" height="4" fill="#005587" />
  
  
  <text x="1220" y="735" font-family="sans-serif" font-size="16" font-weight="400" fill="#005587" text-anchor="end">
    11 / 12
  </text>
</svg>