<svg xmlns="http://www.w3.org/2000/svg" xmlns:xlink="http://www.w3.org/1999/xlink" version="1.1" width="1280" height="720" viewBox="0 0 1280 720"><rect x="0" y="0" width="1280" height="720" fill="#000000"/>
<g id="shape-5" data-name="Picture 4">
<image href="assets/image1.png" x="0" y="0" width="1280" height="720" preserveAspectRatio="none"/>
</g>
<g id="shape-52" data-name="Rectangle 51">
<rect x="577.54" y="0" width="702.46" height="720" fill="#EFEFEF" stroke="none" stroke-width="1"/>
</g>
<g id="shape-13" data-name="Picture 12">
<image href="assets/image3.png" x="14.67" y="14.35" width="87.92" height="87.21" preserveAspectRatio="none"/>
</g>
<g id="shape-24" data-name="图片 14">
<image href="assets/image4.png" x="48" y="52.78" width="106.33" height="24.72" preserveAspectRatio="none"/>
</g>
<g id="shape-27" data-name="Group 26">
<g id="shape-40" data-name="图片 26">
<svg x="643.07" y="22.35" width="584.85" height="128.47" viewBox="0 0.41381 1 0.35474" preserveAspectRatio="none"><image href="assets/image13.jpg" x="0" y="0" width="1" height="1" preserveAspectRatio="none"/></svg>
</g>
<g id="shape-14" data-name="Picture 13">
<svg x="643.07" y="160.07" width="584.85" height="128.12" viewBox="0.14937 0 0.85063 0.26356" preserveAspectRatio="none"><image href="assets/image14.webp" x="0" y="0" width="1" height="1" preserveAspectRatio="none"/></svg>
</g>
<g id="shape-18" data-name="Picture 17">
<svg x="643.07" y="297.43" width="584.85" height="128.12" viewBox="0 0.22301 1 0.35101" preserveAspectRatio="none"><image href="assets/image15.png" x="0" y="0" width="1" height="1" preserveAspectRatio="none"/></svg>
</g>
<g id="shape-20" data-name="Picture 19">
<svg x="643.07" y="435.5" width="584.85" height="128.12" viewBox="0 0.11221 1 0.3139" preserveAspectRatio="none"><image href="assets/image16.png" x="0" y="0" width="1" height="1" preserveAspectRatio="none"/></svg>
</g>
<g id="shape-26" data-name="Picture 25">
<svg x="643.07" y="573.22" width="584.85" height="128.12" viewBox="0 0.37386 1 0.3674" preserveAspectRatio="none"><image href="assets/image17.png" x="0" y="0" width="1" height="1" preserveAspectRatio="none"/></svg>
</g>
</g>
<g id="shape-51" data-name="文本框 11">
<rect x="16.56" y="137.54" width="560.98" height="41.67" fill="none"/>
<text x="26.16" y="163.7" text-anchor="start" xml:space="preserve" font-family="Inter, sans-serif" font-size="21.33" fill="#F2AD00" font-weight="bold"><tspan fill="#F2AD00" font-size="21.33" font-weight="bold">ARCHITECTURAL WORKFLOW EVOLUTION</tspan></text>
</g>
<g id="shape-3" data-name="Picture 2">
<svg x="-3.05" y="192.63" width="567.37" height="491.4" viewBox="0 0.12239 1 0.87761" preserveAspectRatio="none"><image href="assets/image18.png" x="0" y="0" width="1" height="1" preserveAspectRatio="none"/></svg>
</g></svg>