<svg xmlns="http://www.w3.org/2000/svg" xmlns:xlink="http://www.w3.org/1999/xlink" version="1.1" width="1280" height="720" viewBox="0 0 1280 720"><defs><pattern id="bgpatt1" patternUnits="userSpaceOnUse" width="8" height="8" data-pptx-pattern="pct20" data-pptx-fg="#015B57" data-pptx-bg="#263036"><rect width="8" height="8" fill="#263036"/><circle cx="4.0" cy="4.0" r="2.019" fill="#015B57"/></pattern></defs><rect x="0" y="0" width="1280" height="720" fill="url(#bgpatt1)"/>
<g id="shape-7" data-name="Picture 6">
<image href="assets/image1.png" x="0" y="0" width="1280" height="720" preserveAspectRatio="none"/>
</g>
<g id="shape-46" data-name="Rectangle 45">
<rect x="0" y="138.77" width="1280.27" height="550.12" fill="#EFEFEF" stroke="none" stroke-width="1"/>
</g>
<g id="shape-13" data-name="Picture 12">
<image href="assets/image3.png" x="14.67" y="14.35" width="87.92" height="87.21" preserveAspectRatio="none"/>
</g>
<g id="shape-24" data-name="图片 14">
<image href="assets/image4.png" x="48" y="52.78" width="106.33" height="24.72" preserveAspectRatio="none"/>
</g>
<g id="shape-6" data-name="Group 5">
<g id="shape-22" data-name="图片 15">
<svg x="14.67" y="340.06" width="220.3" height="161.53" viewBox="0.13429 0 0.86571 1" preserveAspectRatio="none"><image href="assets/image35.png" x="0" y="0" width="1" height="1" preserveAspectRatio="none"/></svg>
</g>
<g id="shape-27" data-name="图片 19">
<svg x="833.56" y="338.14" width="255.29" height="159.89" viewBox="0 0.1719 1 0.8281" preserveAspectRatio="none"><image href="assets/image36.png" x="0" y="0" width="1" height="1" preserveAspectRatio="none"/></svg>
</g>
<g id="shape-28" data-name="图片 20">
<image href="assets/image37.png" x="255.57" y="340.06" width="311.41" height="161.53" preserveAspectRatio="none"/>
</g>
<g id="shape-36" data-name="图片 28">
<svg x="586.1" y="338.89" width="226.86" height="161.53" viewBox="0 0 0.9335 1" preserveAspectRatio="none"><image href="assets/image38.png" x="0" y="0" width="1" height="1" preserveAspectRatio="none"/></svg>
</g>
</g>
<g id="shape-5" data-name="Group 4">
<g id="shape-25" data-name="图片 17">
<svg x="752.97" y="523.42" width="206.42" height="140.36" viewBox="0 0.02037 0.91448 0.97964" preserveAspectRatio="none"><image href="assets/image39.png" x="0" y="0" width="1" height="1" preserveAspectRatio="none"/></svg>
</g>
<g id="shape-30" data-name="图片 22">
<image href="assets/image40.png" x="14.67" y="524.1" width="247.8" height="139.76" preserveAspectRatio="none"/>
</g>
<g id="shape-32" data-name="图片 24">
<image href="assets/image41.png" x="277.36" y="524.1" width="224.58" height="142.55" preserveAspectRatio="none"/>
</g>
<g id="shape-34" data-name="图片 26">
<image href="assets/image42.png" x="516.83" y="523.42" width="221.25" height="140.44" preserveAspectRatio="none"/>
</g>
<g id="shape-38" data-name="图片 30">
<svg x="973.69" y="521.66" width="279.77" height="142.12" viewBox="0 0.19972 1 0.80028" preserveAspectRatio="none"><image href="assets/image43.png" x="0" y="0" width="1" height="1" preserveAspectRatio="none"/></svg>
</g>
</g>
<g id="shape-4" data-name="Group 3">
<g id="shape-15" data-name="图片 8">
<image href="assets/image44.png" x="14.67" y="157.92" width="210.53" height="161.04" preserveAspectRatio="none"/>
</g>
<g id="shape-18" data-name="图片 10">
<image href="assets/image45.png" x="239.86" y="158.32" width="253.08" height="160.64" preserveAspectRatio="none"/>
</g>
<g id="shape-20" data-name="图片 13">
<svg x="508.97" y="158.32" width="268.05" height="160.64" viewBox="0 0.05588 1 0.94412" preserveAspectRatio="none"><image href="assets/image46.png" x="0" y="0" width="1" height="1" preserveAspectRatio="none"/></svg>
</g>
<g id="shape-40" data-name="图片 33">
<image href="assets/image47.png" x="797.78" y="157.92" width="129.82" height="161.04" preserveAspectRatio="none"/>
</g>
</g>
<g id="shape-43" data-name="文本框 11">
<rect x="277.36" y="40.91" width="961.07" height="48.47" fill="none"/>
<text x="1228.82" y="71.81" text-anchor="end" xml:space="preserve" font-family="Inter, sans-serif" font-size="26.67" fill="#EFEFEF" font-weight="bold"><tspan fill="#EFEFEF" font-size="26.67" font-weight="bold">200+ </tspan><tspan fill="#E7E6E6" font-size="26.67">Companies, sharing, training</tspan></text>
</g></svg>