<svg xmlns="http://www.w3.org/2000/svg" viewBox="0 0 1280 720" width="1280" height="720">
  <defs>
    <style>
      @import url('https://fonts.googleapis.com/css2?family=Noto+Sans+SC:wght@400;600;700&amp;display=swap');
      text { font-family: 'Noto Sans SC', 'Source Han Sans CN', 'Microsoft YaHei', Arial, sans-serif; }
    </style>
  </defs>
  
  
  <rect width="1280" height="720" fill="#FFFFFF" />
  
  
  <text fill="#005587" font-size="36" font-weight="700" x="80" y="100">    企业资质体系 </text><text fill="#7F8C8D" font-size="36" font-weight="700" x="80" y="100">|</text><rect x="80" y="160" width="340" height="500" rx="8" fill="#F8F9FA" />
  
  
  <circle cx="250" cy="210" r="30" fill="#E8F4F8" stroke="#0076A8" stroke-width="2" />
  <text x="250" y="225" text-anchor="middle" font-size="32" font-weight="700" fill="#0076A8">
    ✓
  </text>
  
  <text x="250" y="270" text-anchor="middle" font-size="24" font-weight="700" fill="#005587">
    合规基础
  </text>
  
  <text fill="#2C3E50" font-size="18" font-weight="400" x="110" y="320">    </text><text fill="#2C3E50" font-size="18" font-weight="400" x="110" y="320">• 营业执照</text><text fill="#7F8C8D" font-size="16" font-weight="400" x="130" y="348">经营范围包含软件开发</text><text fill="#7F8C8D" font-size="16" font-weight="400" x="130" y="372">技术服务等</text><text fill="#2C3E50" font-size="18" font-weight="400" x="110" y="412">• 软件产品登记</text><text fill="#7F8C8D" font-size="16" font-weight="400" x="130" y="440">双软认证第一步</text><text fill="#2C3E50" font-size="18" font-weight="400" x="110" y="480">• 软件企业认定</text><text fill="#7F8C8D" font-size="16" font-weight="400" x="130" y="508">双软认证完成</text><rect x="100" y="580" width="300" height="50" rx="6" fill="#E67E22" />
  <text x="250" y="610" text-anchor="middle" font-size="16" font-weight="600" fill="#FFFFFF">
    税收优惠：增值税超3%即征即退
  </text>
  
  
  <rect x="470" y="160" width="340" height="500" rx="8" fill="#F8F9FA" />
  
  
  <circle cx="640" cy="210" r="30" fill="#E8F4F8" stroke="#0076A8" stroke-width="2" />
  <text x="640" y="225" text-anchor="middle" font-size="32" font-weight="700" fill="#0076A8">
    🌐
  </text>
  
  <text x="640" y="270" text-anchor="middle" font-size="24" font-weight="700" fill="#005587">
    互联网准入
  </text>
  
  <text fill="#2C3E50" font-size="18" font-weight="400" x="500" y="320">    </text><text fill="#2C3E50" font-size="18" font-weight="400" x="500" y="320">• ICP 许可证</text><text fill="#7F8C8D" font-size="16" font-weight="400" x="520" y="348">互联网信息服务</text><text fill="#2C3E50" font-size="18" font-weight="400" x="500" y="388">• EDI 许可证</text><text fill="#7F8C8D" font-size="16" font-weight="400" x="520" y="416">在线数据处理与交易</text><text fill="#2C3E50" font-size="18" font-weight="400" x="500" y="456">• 适用场景</text><text fill="#7F8C8D" font-size="16" font-weight="400" x="520" y="484">SaaS 软件</text><text fill="#7F8C8D" font-size="16" font-weight="400" x="520" y="508">在线付费平台</text><text fill="#7F8C8D" font-size="16" font-weight="400" x="520" y="532">数据交互服务</text><rect x="490" y="580" width="300" height="50" rx="6" fill="#E67E22" />
  <text x="640" y="610" text-anchor="middle" font-size="16" font-weight="600" fill="#FFFFFF">
    满足线上运营合规要求
  </text>
  
  
  <rect x="860" y="160" width="340" height="500" rx="8" fill="#F8F9FA" />
  
  
  <circle cx="1030" cy="210" r="30" fill="#E8F4F8" stroke="#0076A8" stroke-width="2" />
  <text x="1030" y="225" text-anchor="middle" font-size="32" font-weight="700" fill="#0076A8">
    🛡
  </text>
  
  <text x="1030" y="270" text-anchor="middle" font-size="24" font-weight="700" fill="#005587">
    安全背书
  </text>
  
  <text fill="#2C3E50" font-size="18" font-weight="400" x="890" y="320">    </text><text fill="#2C3E50" font-size="18" font-weight="400" x="890" y="320">• 等保 2.0 认证</text><text fill="#7F8C8D" font-size="16" font-weight="400" x="910" y="348">网络安全等级保护</text><text fill="#2C3E50" font-size="18" font-weight="400" x="890" y="388">• 二级认证</text><text fill="#7F8C8D" font-size="16" font-weight="400" x="910" y="416">非敏感数据软件</text><text fill="#7F8C8D" font-size="16" font-weight="400" x="910" y="440">企业管理 APP</text><text fill="#2C3E50" font-size="18" font-weight="400" x="890" y="480">• 三级认证</text><text fill="#7F8C8D" font-size="16" font-weight="400" x="910" y="508">医疗软件（必需）</text><text fill="#7F8C8D" font-size="16" font-weight="400" x="910" y="532">金融软件</text><rect x="880" y="580" width="300" height="50" rx="6" fill="#E67E22" />
  <text x="1030" y="610" text-anchor="middle" font-size="16" font-weight="600" fill="#FFFFFF">
    数据安全合规 + 客户信任
  </text>
  
  
  <text x="1200" y="710" text-anchor="end" font-size="14" font-weight="400" fill="#7F8C8D">
    06
  </text>
</svg>